<?xml version="1.0" encoding="UTF-8"?>
<svg width="24" height="24" version="1.1" viewBox="0 0 700 700" xmlns="http://www.w3.org/2000/svg">
 <defs>
  <clipPath id="a">
   <path d="m139.21 139.21h473.58v473.58h-473.58z"/>
  </clipPath>
 </defs>
 <g clip-path="url(#a)">
  <path d="m375.99 139.21c130.5 0 236.68 106.23 236.68 236.79s-106.17 236.79-236.68 236.79c-130.49 0-236.66-106.23-236.66-236.79s106.17-236.79 236.66-236.79zm211.5 176.49c-2.457-8.5703-5.4492-17.082-8.9297-25.293-11.086-26.23-26.926-49.746-47.117-69.922-20.219-20.23-43.746-36.086-69.875-47.141-8.2383-3.4844-16.734-6.4883-25.293-8.9297l-19.582-5.5664 176.41 176.5zm-203.07 280.15 5.6211-0.36328c11.879-0.75 23.645-2.4297 34.961-5.0312l9.3203-2.125-49.906-49.961zm0-81.297 67.812 67.84 3.2227-1.2578c2.0391-0.80859 4.0898-1.6172 6.1133-2.4844 7.0078-2.9609 14.047-6.4023 20.926-10.203l6.1562-3.4102-104.23-104.25-0.003907 53.762zm0-77.598 118.6 118.66 3.6562-2.7188c7.4727-5.5352 14.711-11.664 21.535-18.211l3.9023-3.7422-147.69-147.75zm0-77.609 1.5469 1.5625 157.56 157.65 3.6836-4.5977c5.9961-7.4297 11.52-15.277 16.445-23.328l2.1836-3.5547-181.42-181.5v53.766zm0-77.582 189.69 189.78 4.4375-9.8984c3.6133-8.5273 6.707-17.387 9.2227-26.391l0.83984-2.9766-2.1953-2.1836-201.99-202.11zm0-77.609 208.61 208.72 1.2852-10.84c1.0117-8.5859 1.5195-17.344 1.5195-26.043 0-4.1914-0.11719-8.3828-0.36328-12.559l-0.11719-2.0078-1.4297-1.418-209.5-209.62zm-163.88 327.35c20.191 20.203 43.703 36.059 69.879 47.145 22.762 9.6406 46.84 15.289 71.539 16.836l5.6211 0.34766 0.003906-439.68-5.6211 0.33203c-24.715 1.5625-48.793 7.2266-71.539 16.852-26.129 11.055-49.645 26.91-69.863 47.145-20.191 20.203-36.043 43.719-47.117 69.891-11.461 27.113-17.27 55.918-17.27 85.617s5.8086 58.504 17.27 85.617c11.07 26.176 26.922 49.688 47.098 69.895z"/>
 </g>
</svg>
