<?xml version="1.0" encoding="UTF-8"?>
<svg width="24" height="24" version="1.1" viewBox="0 0 700 700" xmlns="http://www.w3.org/2000/svg">
 <path d="m350 560c-19.25 0-36.75-1.75-54.25-5.25-7-1.75-12.25-8.75-10.5-15.75s8.75-12.25 15.75-10.5c15.75 3.5 33.25 5.25 49 5.25 7 0 14 5.25 14 14s-7 12.25-14 12.25zm52.5-5.25c-7 0-12.25-3.5-12.25-10.5-1.75-7 3.5-14 10.5-15.75 15.75-3.5 31.5-8.75 47.25-14 7-3.5 14 0 17.5 7s0 14-7 17.5c-17.5 7-35 12.25-52.5 15.75h-3.5zm-154-14c-1.75 0-3.5 0-5.25-1.75-17.5-7-33.25-15.75-49-26.25-5.25-3.5-7-12.25-3.5-17.5s12.25-7 17.5-3.5c14 8.75 28 17.5 43.75 22.75 7 3.5 10.5 10.5 7 17.5 0 5.25-5.25 8.75-10.5 8.75zm250.25-26.25c-3.5 0-8.75-1.75-10.5-5.25-3.5-5.25-1.75-14 3.5-17.5 14-8.75 26.25-19.25 38.5-31.5 5.25-5.25 14-5.25 19.25 0s5.25 14 0 19.25c-12.25 12.25-28 24.5-42 35h-8.75zm-337.75-33.25c-3.5 0-7-1.75-8.75-3.5-12.25-12.25-24.5-28-35-42-3.5-5.25-1.75-14 3.5-17.5s14-1.75 17.5 3.5c8.75 14 19.25 26.25 31.5 38.5 5.25 5.25 5.25 14 0 19.25-1.75 1.75-5.25 1.75-8.75 1.75zm411.25-40.25c-1.75 0-5.25 0-7-1.75-5.25-3.5-7-12.25-3.5-17.5 8.75-14 17.5-28 22.75-43.75 3.5-7 10.5-10.5 17.5-7s10.5 10.5 7 17.5c-7 17.5-15.75 33.25-26.25 49-1.75 1.75-7 3.5-10.5 3.5zm-469-45.5c-5.25 0-10.5-3.5-12.25-8.75-7-17.5-12.25-35-15.75-52.5-1.75-7 3.5-14 10.5-15.75s14 3.5 15.75 10.5c3.5 15.75 8.75 31.5 14 47.25 3.5 7 0 14-7 17.5-1.75 1.75-3.5 1.75-5.25 1.75zm509.25-50.75h-1.75c-7-1.75-12.25-8.75-10.5-15.75 3.5-15.75 5.25-33.25 5.25-49 0-7 5.25-14 14-14 7 0 12.25 5.25 12.25 12.25h-14 14c0 19.25-1.75 36.75-5.25 54.25-3.5 8.75-8.75 12.25-14 12.25zm-528.5-50.75c-8.75 0-14-7-14-14 0-17.5 1.75-35 5.25-54.25 1.75-7 8.75-12.25 15.75-10.5s12.25 8.75 10.5 15.75c-3.5 15.75-5.25 33.25-5.25 49 0 7-5.25 14-12.25 14zm526.75-54.25c-5.25 0-12.25-3.5-12.25-10.5-3.5-15.75-8.75-31.5-14-47.25-3.5-7 0-14 7-17.5s14 0 17.5 7c7 17.5 12.25 35 15.75 52.5 1.75 7-3.5 14-10.5 15.75h-3.5zm-507.5-49c-1.75 0-3.5 0-5.25-1.75-7-3.5-10.5-10.5-7-17.5 7-17.5 15.75-33.25 26.25-49 3.5-5.25 12.25-7 17.5-3.5s7 12.25 3.5 17.5c-8.75 14-17.5 28-22.75 43.75-1.75 8.75-7 10.5-12.25 10.5zm469-47.25c-3.5 0-8.75-1.75-10.5-5.25-8.75-14-19.25-26.25-31.5-38.5-5.25-5.25-5.25-14 0-19.25s14-5.25 19.25 0c12.25 12.25 24.5 26.25 35 42 3.5 5.25 1.75 14-3.5 17.5s-7 3.5-8.75 3.5zm-411.25-38.5c-3.5 0-7-1.75-8.75-3.5-5.25-5.25-5.25-14 0-19.25 12.25-12.25 26.25-24.5 42-35 5.25-3.5 14-1.75 17.5 3.5s1.75 14-3.5 17.5c-14 10.5-26.25 21-38.5 33.25-1.75 1.75-5.25 3.5-8.75 3.5zm336-35c-1.75 0-5.25 0-7-1.75-14-8.75-28-17.5-43.75-22.75-7-3.5-10.5-10.5-7-17.5s10.5-10.5 17.5-7c17.5 7 33.25 15.75 49 26.25 5.25 3.5 7 12.25 3.5 17.5-3.5 3.5-7 5.25-12.25 5.25zm-250.25-22.75c-5.25 0-10.5-3.5-12.25-8.75-3.5-7 0-14 7-17.5 17.5-7 35-12.25 52.5-15.75 7-1.75 14 3.5 15.75 10.5s-3.5 14-10.5 15.75c-15.75 3.5-31.5 8.75-47.25 14-1.75 1.75-3.5 1.75-5.25 1.75zm154-15.75h-1.75c-15.75-3.5-31.5-5.25-49-5.25-7 0-14-5.25-14-14s5.25-12.25 14-12.25c17.5 0 36.75 1.75 54.25 5.25 7 1.75 12.25 8.75 10.5 15.75-1.75 5.25-7 10.5-14 10.5z"/>
</svg>
