<?xml version="1.0" encoding="UTF-8"?>
<svg width="24" height="24" version="1.1" viewBox="0 0 700 700" xmlns="http://www.w3.org/2000/svg" xmlns:xlink="http://www.w3.org/1999/xlink">
 <defs>
  <symbol id="w" overflow="visible">
   <path d="m7.2812-0.4375c-0.375 0.19922-0.76562 0.34375-1.1719 0.4375-0.40625 0.10156-0.83594 0.15625-1.2812 0.15625-1.3125 0-2.3555-0.36719-3.125-1.1094-0.77344-0.73828-1.1562-1.7383-1.1562-3 0-1.2578 0.38281-2.2578 1.1562-3 0.76953-0.73828 1.8125-1.1094 3.125-1.1094 0.44531 0 0.875 0.054688 1.2812 0.15625 0.40625 0.09375 0.79688 0.24219 1.1719 0.4375v1.6406c-0.38672-0.25781-0.76172-0.44531-1.125-0.5625-0.36719-0.125-0.75-0.1875-1.1562-0.1875-0.73047 0-1.3047 0.23438-1.7188 0.70312-0.41797 0.46094-0.625 1.1016-0.625 1.9219 0 0.82422 0.20703 1.4688 0.625 1.9375 0.41406 0.46094 0.98828 0.6875 1.7188 0.6875 0.40625 0 0.78906-0.054687 1.1562-0.17188 0.36328-0.125 0.73828-0.31641 1.125-0.57812z"/>
  </symbol>
  <symbol id="b" overflow="visible">
   <path d="m5.3281-4.3281c-0.16797-0.070313-0.33594-0.125-0.5-0.15625-0.16797-0.039063-0.33594-0.0625-0.5-0.0625-0.49219 0-0.86719 0.15625-1.125 0.46875-0.26172 0.3125-0.39062 0.76172-0.39062 1.3438v2.7344h-1.9062v-5.9375h1.9062v0.96875c0.23828-0.38281 0.51562-0.66406 0.82812-0.84375 0.32031-0.17578 0.70312-0.26562 1.1406-0.26562 0.070312 0 0.14453 0.007813 0.21875 0.015625 0.070312 0 0.17578 0.007812 0.3125 0.015625z"/>
  </symbol>
  <symbol id="a" overflow="visible">
   <path d="m6.8438-2.9844v0.54688h-4.4375c0.039062 0.4375 0.19531 0.77344 0.46875 1 0.28125 0.21875 0.67188 0.32812 1.1719 0.32812 0.39453 0 0.80078-0.054687 1.2188-0.17188 0.41406-0.125 0.84766-0.30469 1.2969-0.54688v1.4688c-0.44922 0.16797-0.90234 0.29297-1.3594 0.375-0.44922 0.09375-0.89844 0.14062-1.3438 0.14062-1.0742 0-1.9062-0.26953-2.5-0.8125-0.59375-0.55078-0.89062-1.3203-0.89062-2.3125 0-0.96875 0.28906-1.7266 0.875-2.2812 0.58203-0.55078 1.3906-0.82812 2.4219-0.82812 0.92578 0 1.6719 0.28125 2.2344 0.84375s0.84375 1.3125 0.84375 2.25zm-1.9531-0.625c0-0.36328-0.10547-0.65625-0.3125-0.875-0.21094-0.21875-0.48438-0.32812-0.82812-0.32812-0.36719 0-0.66406 0.10547-0.89062 0.3125-0.23047 0.19922-0.375 0.49609-0.4375 0.89062z"/>
  </symbol>
  <symbol id="f" overflow="visible">
   <path d="m3.5781-2.6719c-0.39844 0-0.69922 0.070313-0.90625 0.20312-0.19922 0.13672-0.29688 0.33594-0.29688 0.59375 0 0.24219 0.078125 0.42969 0.23438 0.5625 0.16406 0.13672 0.39453 0.20312 0.6875 0.20312 0.35156 0 0.64844-0.125 0.89062-0.375 0.25-0.25781 0.375-0.58203 0.375-0.96875v-0.21875zm2.8906-0.71875v3.3906h-1.9062v-0.875c-0.26172 0.35547-0.55469 0.61719-0.875 0.78125-0.3125 0.16406-0.69531 0.25-1.1406 0.25-0.61719 0-1.1172-0.17578-1.5-0.53125-0.38672-0.36328-0.57812-0.83203-0.57812-1.4062 0-0.69531 0.23828-1.207 0.71875-1.5312 0.47656-0.32031 1.2266-0.48438 2.25-0.48438h1.125v-0.15625c0-0.30078-0.12109-0.51953-0.35938-0.65625-0.24219-0.13281-0.60938-0.20312-1.1094-0.20312-0.40625 0-0.78906 0.042969-1.1406 0.125-0.34375 0.074219-0.66797 0.19531-0.96875 0.35938v-1.4531c0.40625-0.09375 0.8125-0.16406 1.2188-0.21875 0.41406-0.050781 0.82812-0.078125 1.2344-0.078125 1.0703 0 1.8438 0.21484 2.3125 0.64062 0.47656 0.41797 0.71875 1.1016 0.71875 2.0469z"/>
  </symbol>
  <symbol id="d" overflow="visible">
   <path d="m2.9844-7.625v1.6875h1.9531v1.3594h-1.9531v2.5156c0 0.27344 0.050781 0.46094 0.15625 0.5625 0.11328 0.09375 0.33203 0.14062 0.65625 0.14062h0.98438v1.3594h-1.625c-0.75 0-1.2812-0.15625-1.5938-0.46875s-0.46875-0.84375-0.46875-1.5938v-2.5156h-0.95312v-1.3594h0.95312v-1.6875z"/>
  </symbol>
  <symbol id="l" overflow="visible">
   <path d="m4.9531-5.0625v-3.1875h1.9062v8.25h-1.9062v-0.85938c-0.26172 0.35547-0.55469 0.61719-0.875 0.78125-0.3125 0.15625-0.67188 0.23438-1.0781 0.23438-0.74219 0-1.3438-0.28906-1.8125-0.875-0.46875-0.58203-0.70312-1.332-0.70312-2.25 0-0.91406 0.23438-1.6602 0.70312-2.2344 0.46875-0.58203 1.0703-0.875 1.8125-0.875 0.40625 0 0.76562 0.085937 1.0781 0.25 0.32031 0.15625 0.61328 0.41406 0.875 0.76562zm-1.25 3.8438c0.40625 0 0.71094-0.14453 0.92188-0.4375 0.21875-0.30078 0.32812-0.73828 0.32812-1.3125 0-0.5625-0.10938-0.98828-0.32812-1.2812-0.21094-0.30078-0.51562-0.45312-0.92188-0.45312s-0.71875 0.15234-0.9375 0.45312c-0.21094 0.29297-0.3125 0.71875-0.3125 1.2812 0 0.57422 0.10156 1.0117 0.3125 1.3125 0.21875 0.29297 0.53125 0.4375 0.9375 0.4375z"/>
  </symbol>
  <symbol id="k" overflow="visible">
   <path d="m4.0781-1.2188c0.40625 0 0.71094-0.14453 0.92188-0.4375 0.21875-0.30078 0.32812-0.73828 0.32812-1.3125 0-0.5625-0.10938-0.98828-0.32812-1.2812-0.21094-0.30078-0.51562-0.45312-0.92188-0.45312s-0.71875 0.15234-0.9375 0.45312c-0.21875 0.29297-0.32812 0.71875-0.32812 1.2812s0.10938 0.99609 0.32812 1.2969c0.21875 0.30469 0.53125 0.45312 0.9375 0.45312zm-1.2656-3.8438c0.25781-0.35156 0.54688-0.60938 0.85938-0.76562 0.32031-0.16406 0.69141-0.25 1.1094-0.25 0.72656 0 1.3281 0.29297 1.7969 0.875 0.46875 0.57422 0.70312 1.3203 0.70312 2.2344 0 0.91797-0.23438 1.668-0.70312 2.25-0.46875 0.58594-1.0703 0.875-1.7969 0.875-0.41797 0-0.78906-0.085938-1.1094-0.25-0.3125-0.16406-0.60156-0.42188-0.85938-0.76562v0.85938h-1.9062v-8.25h1.9062z"/>
  </symbol>
  <symbol id="j" overflow="visible">
   <path d="m0.125-5.9375h1.9062l1.5938 4.0312 1.3594-4.0312h1.8906l-2.4844 6.5c-0.25 0.65625-0.54688 1.1133-0.89062 1.375-0.33594 0.26953-0.77344 0.40625-1.3125 0.40625h-1.0938v-1.25h0.59375c0.3125 0 0.53906-0.054688 0.6875-0.15625 0.15625-0.09375 0.26953-0.27734 0.34375-0.54688l0.0625-0.15625z"/>
  </symbol>
  <symbol id="i" overflow="visible">
   <path d="m0.90625-8.25h1.9062v4.4844l2.1875-2.1719h2.2031l-2.9062 2.7188 3.125 3.2188h-2.2969l-2.3125-2.4688v2.4688h-1.9062z"/>
  </symbol>
  <symbol id="h" overflow="visible">
   <path d="m6.4219-4.9531c0.23828-0.36328 0.51953-0.64062 0.84375-0.82812 0.33203-0.19531 0.69531-0.29688 1.0938-0.29688 0.6875 0 1.207 0.21484 1.5625 0.64062 0.35156 0.41797 0.53125 1.0273 0.53125 1.8281v3.6094h-1.9062v-3.0938-0.14062c0.007813-0.050781 0.015625-0.125 0.015625-0.21875 0-0.41406-0.0625-0.71875-0.1875-0.90625-0.125-0.19531-0.32812-0.29688-0.60938-0.29688-0.35547 0-0.63281 0.15234-0.82812 0.45312-0.19922 0.29297-0.29688 0.71875-0.29688 1.2812v2.9219h-1.9219v-3.0938c0-0.65625-0.058594-1.0781-0.17188-1.2656-0.10547-0.19531-0.30469-0.29688-0.59375-0.29688-0.36719 0-0.64844 0.15234-0.84375 0.45312-0.19922 0.30469-0.29688 0.73047-0.29688 1.2812v2.9219h-1.9062v-5.9375h1.9062v0.875c0.22656-0.34375 0.49219-0.59766 0.79688-0.76562 0.30078-0.16406 0.63281-0.25 1-0.25 0.41406 0 0.78125 0.10156 1.0938 0.29688 0.3125 0.19922 0.55078 0.47656 0.71875 0.82812z"/>
  </symbol>
  <symbol id="c" overflow="visible">
   <path d="m3.7344-4.7188c-0.41797 0-0.74219 0.15234-0.96875 0.45312-0.21875 0.30469-0.32812 0.73438-0.32812 1.2969 0 0.57422 0.10938 1.0117 0.32812 1.3125 0.22656 0.30469 0.55078 0.45312 0.96875 0.45312 0.41406 0 0.73438-0.14844 0.95312-0.45312 0.21875-0.30078 0.32812-0.73828 0.32812-1.3125 0-0.5625-0.10938-0.99219-0.32812-1.2969-0.21875-0.30078-0.53906-0.45312-0.95312-0.45312zm0-1.3594c1.0195 0 1.8164 0.27734 2.3906 0.82812 0.58203 0.55469 0.875 1.3125 0.875 2.2812 0 0.98047-0.29297 1.7461-0.875 2.2969-0.57422 0.55469-1.3711 0.82812-2.3906 0.82812-1.0234 0-1.8242-0.27344-2.4062-0.82812-0.57422-0.55078-0.85938-1.3164-0.85938-2.2969 0-0.96875 0.28516-1.7266 0.85938-2.2812 0.58203-0.55078 1.3828-0.82812 2.4062-0.82812z"/>
  </symbol>
  <symbol id="v" overflow="visible">
   <path d="m0.17188-5.9375h1.8906l1.4844 4.1094 1.4688-4.1094h1.9062l-2.3438 5.9375h-2.0781z"/>
  </symbol>
  <symbol id="u" overflow="visible">
   <path d="m0.90625-5.9375h1.9062v5.9375h-1.9062zm0-2.3125h1.9062v1.5469h-1.9062z"/>
  </symbol>
  <symbol id="g" overflow="visible">
   <path d="m5.7031-5.75v1.5469c-0.25-0.17578-0.50781-0.30469-0.76562-0.39062-0.26172-0.082031-0.53125-0.125-0.8125-0.125-0.53125 0-0.94922 0.15625-1.25 0.46875-0.29297 0.30469-0.4375 0.73047-0.4375 1.2812 0 0.5625 0.14453 1 0.4375 1.3125 0.30078 0.30469 0.71875 0.45312 1.25 0.45312 0.30078 0 0.58203-0.039063 0.84375-0.125 0.26953-0.09375 0.51562-0.22656 0.73438-0.40625v1.5625c-0.29297 0.10547-0.59375 0.17969-0.90625 0.23438-0.30469 0.0625-0.60547 0.09375-0.90625 0.09375-1.0742 0-1.9141-0.27344-2.5156-0.82812-0.60547-0.55078-0.90625-1.3164-0.90625-2.2969 0-0.97656 0.30078-1.7383 0.90625-2.2812 0.60156-0.55078 1.4414-0.82812 2.5156-0.82812 0.3125 0 0.61719 0.027344 0.92188 0.078125 0.30078 0.054688 0.59766 0.13672 0.89062 0.25z"/>
  </symbol>
  <symbol id="t" overflow="visible">
   <path d="m3.125-1.5h3.4844v1.5h-5.75v-1.5l2.8906-2.5469c0.25781-0.23828 0.44531-0.46875 0.5625-0.6875 0.125-0.21875 0.1875-0.45312 0.1875-0.70312 0-0.36328-0.125-0.66016-0.375-0.89062-0.24219-0.22656-0.57031-0.34375-0.98438-0.34375-0.32422 0-0.67188 0.074219-1.0469 0.21875-0.375 0.13672-0.78125 0.33594-1.2188 0.59375v-1.7344c0.45703-0.15625 0.91016-0.26953 1.3594-0.34375 0.45703-0.082031 0.89844-0.125 1.3281-0.125 0.94531 0 1.6797 0.21094 2.2031 0.625 0.53125 0.41797 0.79688 1 0.79688 1.75 0 0.42969-0.11719 0.82812-0.34375 1.2031-0.21875 0.375-0.6875 0.875-1.4062 1.5z"/>
  </symbol>
  <symbol id="e" overflow="visible">
   <path d="m5-3.9688c0-0.98828-0.09375-1.6875-0.28125-2.0938s-0.5-0.60938-0.9375-0.60938-0.75 0.20312-0.9375 0.60938-0.28125 1.1055-0.28125 2.0938c0 1 0.09375 1.7109 0.28125 2.125 0.1875 0.40625 0.5 0.60938 0.9375 0.60938s0.75-0.20312 0.9375-0.60938c0.1875-0.41406 0.28125-1.125 0.28125-2.125zm2.0312 0.015625c0 1.3125-0.28125 2.3281-0.84375 3.0469-0.5625 0.71094-1.3672 1.0625-2.4062 1.0625-1.043 0-1.8516-0.35156-2.4219-1.0625-0.5625-0.71875-0.84375-1.7344-0.84375-3.0469s0.28125-2.3203 0.84375-3.0312c0.57031-0.71875 1.3789-1.0781 2.4219-1.0781 1.0391 0 1.8438 0.35938 2.4062 1.0781 0.5625 0.71094 0.84375 1.7188 0.84375 3.0312z"/>
  </symbol>
  <symbol id="s" overflow="visible">
   <path d="m4.8125-8.25v1.25h-1.0469c-0.27344 0-0.46094 0.046875-0.5625 0.14062-0.10547 0.09375-0.15625 0.26172-0.15625 0.5v0.42188h1.625v1.3594h-1.625v4.5781h-1.8906v-4.5781h-0.95312v-1.3594h0.95312v-0.42188c0-0.64453 0.17578-1.1172 0.53125-1.4219 0.36328-0.3125 0.92188-0.46875 1.6719-0.46875z"/>
  </symbol>
  <symbol id="r" overflow="visible">
   <path d="m6.875-3.6094v3.6094h-1.9062v-2.75c0-0.51953-0.011719-0.87891-0.03125-1.0781-0.023438-0.19531-0.0625-0.34375-0.125-0.4375-0.074219-0.11328-0.17188-0.20703-0.29688-0.28125-0.125-0.070313-0.27344-0.10938-0.4375-0.10938-0.39844 0-0.71094 0.15625-0.9375 0.46875-0.21875 0.30469-0.32812 0.72656-0.32812 1.2656v2.9219h-1.9062v-8.25h1.9062v3.1875c0.28125-0.35156 0.58203-0.60938 0.90625-0.76562 0.32031-0.16406 0.67578-0.25 1.0625-0.25 0.6875 0 1.207 0.21484 1.5625 0.64062 0.35156 0.41797 0.53125 1.0273 0.53125 1.8281z"/>
  </symbol>
  <symbol id="q" overflow="visible">
   <path d="m1-7.9219h2.2812l2.875 5.4375v-5.4375h1.9375v7.9219h-2.2812l-2.875-5.4375v5.4375h-1.9375z"/>
  </symbol>
  <symbol id="p" overflow="visible">
   <path d="m0.84375-2.3125v-3.625h1.9062v0.59375 1.2188 0.96875c0 0.48047 0.007812 0.82422 0.03125 1.0312 0.03125 0.21094 0.070312 0.35938 0.125 0.45312 0.082031 0.125 0.1875 0.22656 0.3125 0.29688 0.125 0.0625 0.26562 0.09375 0.42188 0.09375 0.39453 0 0.70703-0.14844 0.9375-0.45312 0.22656-0.30078 0.34375-0.72266 0.34375-1.2656v-2.9375h1.8906v5.9375h-1.8906v-0.85938c-0.29297 0.34375-0.60156 0.60156-0.92188 0.76562-0.3125 0.16406-0.66406 0.25-1.0469 0.25-0.6875 0-1.2148-0.20703-1.5781-0.625-0.35547-0.42578-0.53125-1.0391-0.53125-1.8438z"/>
  </symbol>
  <symbol id="o" overflow="visible">
   <path d="m6.875-3.6094v3.6094h-1.9062v-2.7656c0-0.50781-0.011719-0.86328-0.03125-1.0625-0.023438-0.19531-0.0625-0.34375-0.125-0.4375-0.074219-0.11328-0.17188-0.20703-0.29688-0.28125-0.125-0.070313-0.27344-0.10938-0.4375-0.10938-0.39844 0-0.71094 0.15625-0.9375 0.46875-0.21875 0.30469-0.32812 0.72656-0.32812 1.2656v2.9219h-1.9062v-5.9375h1.9062v0.875c0.28125-0.35156 0.58203-0.60938 0.90625-0.76562 0.32031-0.16406 0.67578-0.25 1.0625-0.25 0.6875 0 1.207 0.21484 1.5625 0.64062 0.35156 0.41797 0.53125 1.0273 0.53125 1.8281z"/>
  </symbol>
  <symbol id="n" overflow="visible">
   <path d="m1-7.9219h3.3906c1 0 1.7695 0.22656 2.3125 0.67188 0.53906 0.44922 0.8125 1.0898 0.8125 1.9219 0 0.82422-0.27344 1.4609-0.8125 1.9062-0.54297 0.44922-1.3125 0.67188-2.3125 0.67188h-1.3594v2.75h-2.0312zm2.0312 1.4844v2.2188h1.1406c0.39453 0 0.69531-0.09375 0.90625-0.28125 0.21875-0.19531 0.32812-0.47266 0.32812-0.82812 0-0.35156-0.10938-0.625-0.32812-0.8125-0.21094-0.19531-0.51172-0.29688-0.90625-0.29688z"/>
  </symbol>
  <symbol id="m" overflow="visible">
   <path d="m0.90625-5.9375h1.9062v5.8281c0 0.80078-0.19531 1.4102-0.57812 1.8281-0.375 0.41406-0.92969 0.625-1.6562 0.625h-0.9375v-1.25h0.32812c0.36328 0 0.60938-0.085938 0.73438-0.25 0.13281-0.15625 0.20312-0.47656 0.20312-0.95312zm0-2.3125h1.9062v1.5469h-1.9062z"/>
  </symbol>
 </defs>
 <g>
  <path d="m592.02 138.91v280l-240.93 141.09-243.1-141.09v-280l243.1-138.91zm-28.219 17.363-212.71-123.72-214.88 123.72v245.27l214.88 123.72 212.71-123.72z"/>
 </g>
</svg>
