<?xml version="1.0" encoding="UTF-8"?>
<svg width="24px" height="24px" version="1.1" viewBox="0 0 700 700" xmlns="http://www.w3.org/2000/svg">
 <path d="m128.33 246.4 210 121.33v0.003906c3.5469 2.0469 7.5703 3.125 11.668 3.125s8.1211-1.0781 11.668-3.125l210-121.33v-0.003906c7.1953-4.1719 11.625-11.863 11.625-20.184 0-8.3164-4.4297-16.008-11.625-20.18l-210-121.33v-0.003906c-3.5469-2.0469-7.5703-3.125-11.668-3.125s-8.1211 1.0781-11.668 3.125l-210 121.33v0.003906c-7.1953 4.1719-11.625 11.863-11.625 20.18 0 8.3203 4.4297 16.012 11.625 20.184zm221.67-114.57 163.33 93.332-163.33 94.5-163.33-93.562zm198.33 181.77-198.33 114.57-198.33-114.57c-5.3516-3.1367-11.73-4.0117-17.727-2.4375-6 1.5781-11.125 5.4766-14.242 10.836-3.1172 5.3789-3.957 11.777-2.3359 17.781 1.6211 6 5.5703 11.105 10.969 14.184l210 121.33v0.003906c3.5469 2.0469 7.5703 3.125 11.668 3.125s8.1211-1.0781 11.668-3.125l210-121.33v-0.003906c5.3984-3.0781 9.3477-8.1836 10.969-14.184 1.6211-6.0039 0.78125-12.402-2.3359-17.781-3.1172-5.3594-8.2422-9.2578-14.242-10.836-5.9961-1.5742-12.375-0.69922-17.727 2.4375z"/>
</svg>
