<?xml version="1.0" encoding="UTF-8"?>
<svg width="24" height="24" version="1.1" viewBox="0 0 700 700" xmlns="http://www.w3.org/2000/svg">
 <path d="m350 436.8c41.586 0 81.469-16.52 110.88-45.926s45.926-69.289 45.926-110.88-16.52-81.469-45.926-110.88-69.289-45.926-110.88-45.926-81.469 16.52-110.88 45.926-45.926 69.289-45.926 110.88c0.046875 41.57 16.582 81.426 45.977 110.82 29.398 29.395 69.254 45.93 110.82 45.977zm13.07-168h-26.141v-30.406l26.141-13.07zm-37.34 22.398h61.602v50.398h-74.66v-50.398zm-35.453 109.02 18.117-36.223h83.211l18.117 36.223c-37.57 18.902-81.875 18.902-119.45 0zm59.723-254.62c38.082-0.042968 74.391 16.09 99.883 44.379 25.492 28.293 37.77 66.082 33.773 103.95s-23.891 72.266-54.727 94.613l-19.203-38.395 0.003907-70.152c0-2.9688-1.1797-5.8203-3.2812-7.918-2.1016-2.1016-4.9492-3.2812-7.918-3.2812h-13.059l-0.003906-61.602c0.003906-3.8828-2.0078-7.4883-5.3086-9.5273-3.3008-2.043-7.4258-2.2266-10.898-0.49219l-48.539 24.27c-3.7969 1.8984-6.1953 5.7773-6.1914 10.02v37.332h-13.062c-6.1836 0-11.199 5.0117-11.199 11.199v70.152l-19.203 38.395h0.003906c-30.836-22.348-50.73-56.742-54.727-94.613s8.2812-75.66 33.773-103.95c25.492-28.289 61.801-44.422 99.883-44.379z"/>
</svg>
