<?xml version="1.0" encoding="UTF-8"?>
<svg width="24" height="24" version="1.1" viewBox="0 0 700 700" xmlns="http://www.w3.org/2000/svg" xmlns:xlink="http://www.w3.org/1999/xlink">
 <defs>
  <symbol id="v" overflow="visible">
   <path d="m1.8281-0.10938c-0.09375 0.054688-0.19531 0.089844-0.29688 0.10938-0.09375 0.019531-0.19922 0.03125-0.3125 0.03125-0.33594 0-0.60156-0.085938-0.79688-0.26562-0.1875-0.1875-0.28125-0.44141-0.28125-0.76562 0-0.3125 0.09375-0.5625 0.28125-0.75 0.19531-0.1875 0.46094-0.28125 0.79688-0.28125 0.11328 0 0.21875 0.015625 0.3125 0.046875 0.10156 0.023437 0.20312 0.058594 0.29688 0.10938v0.40625c-0.09375-0.0625-0.1875-0.10938-0.28125-0.14062s-0.19531-0.046875-0.29688-0.046875c-0.17969 0-0.32031 0.0625-0.42188 0.1875-0.10547 0.11719-0.15625 0.27344-0.15625 0.46875 0 0.21094 0.050781 0.375 0.15625 0.5 0.10156 0.11719 0.24219 0.17188 0.42188 0.17188 0.10156 0 0.20312-0.015625 0.29688-0.046875s0.1875-0.078125 0.28125-0.14062z"/>
  </symbol>
  <symbol id="f" overflow="visible">
   <path d="m1.3438-1.0938c-0.042969-0.019531-0.085938-0.03125-0.125-0.03125-0.042969-0.007812-0.085938-0.015625-0.125-0.015625-0.125 0-0.22656 0.042969-0.29688 0.125-0.0625 0.074219-0.09375 0.18359-0.09375 0.32812v0.6875h-0.46875v-1.5h0.46875v0.25c0.0625-0.09375 0.12891-0.16016 0.20312-0.20312 0.082031-0.050781 0.17969-0.078125 0.29688-0.078125h0.046875c0.019531 0 0.050781 0.007812 0.09375 0.015625z"/>
  </symbol>
  <symbol id="a" overflow="visible">
   <path d="m1.7188-0.75v0.14062h-1.1094c0.007813 0.10547 0.046875 0.1875 0.10938 0.25 0.070312 0.054687 0.17188 0.078125 0.29688 0.078125 0.10156 0 0.20703-0.015625 0.3125-0.046875 0.10156-0.03125 0.21094-0.070313 0.32812-0.125v0.35938c-0.11719 0.042969-0.23047 0.074219-0.34375 0.09375-0.11719 0.019531-0.23047 0.03125-0.34375 0.03125-0.27344 0-0.48047-0.066406-0.625-0.20312-0.14844-0.13281-0.21875-0.32812-0.21875-0.57812 0-0.23828 0.070312-0.42578 0.21875-0.5625 0.14453-0.14453 0.34766-0.21875 0.60938-0.21875 0.22656 0 0.41016 0.074219 0.54688 0.21875 0.14453 0.13672 0.21875 0.32422 0.21875 0.5625zm-0.48438-0.15625c0-0.09375-0.027344-0.16406-0.078125-0.21875-0.054688-0.0625-0.125-0.09375-0.21875-0.09375-0.085938 0-0.15625 0.027344-0.21875 0.078125-0.0625 0.054687-0.10156 0.13281-0.10938 0.23438z"/>
  </symbol>
  <symbol id="e" overflow="visible">
   <path d="m0.90625-0.67188c-0.10547 0-0.18359 0.015625-0.23438 0.046875-0.054687 0.03125-0.078125 0.085938-0.078125 0.15625 0 0.0625 0.019531 0.10938 0.0625 0.14062 0.039062 0.03125 0.097656 0.046875 0.17188 0.046875 0.09375 0 0.16406-0.03125 0.21875-0.09375 0.0625-0.0625 0.09375-0.14453 0.09375-0.25v-0.046875zm0.71875-0.1875v0.85938h-0.48438v-0.21875c-0.0625 0.09375-0.13672 0.16406-0.21875 0.20312-0.074219 0.03125-0.16797 0.046875-0.28125 0.046875-0.15625 0-0.28125-0.039062-0.375-0.125-0.09375-0.09375-0.14062-0.21094-0.14062-0.35938 0-0.17578 0.054688-0.30078 0.17188-0.375 0.125-0.082031 0.3125-0.125 0.5625-0.125h0.28125v-0.046875c0-0.070312-0.03125-0.125-0.09375-0.15625-0.054687-0.039062-0.14062-0.0625-0.26562-0.0625-0.10547 0-0.20312 0.011719-0.29688 0.03125-0.085937 0.023438-0.16406 0.054688-0.23438 0.09375v-0.35938c0.10156-0.03125 0.20703-0.050781 0.3125-0.0625 0.10156-0.007813 0.20312-0.015625 0.29688-0.015625 0.26953 0 0.46094 0.054688 0.57812 0.15625 0.125 0.10547 0.1875 0.27734 0.1875 0.51562z"/>
  </symbol>
  <symbol id="d" overflow="visible">
   <path d="m0.75-1.9219v0.42188h0.5v0.34375h-0.5v0.64062c0 0.0625 0.007812 0.10938 0.03125 0.14062 0.03125 0.023438 0.085938 0.03125 0.17188 0.03125h0.25v0.34375h-0.40625c-0.1875 0-0.32422-0.035156-0.40625-0.10938-0.074219-0.082031-0.10938-0.21875-0.10938-0.40625v-0.64062h-0.25v-0.34375h0.25v-0.42188z"/>
  </symbol>
  <symbol id="k" overflow="visible">
   <path d="m1.25-1.2812v-0.79688h0.48438v2.0781h-0.48438v-0.21875c-0.074219 0.09375-0.15234 0.16406-0.23438 0.20312-0.074219 0.03125-0.16406 0.046875-0.26562 0.046875-0.17969 0-0.32812-0.070312-0.45312-0.21875-0.11719-0.14453-0.17188-0.33203-0.17188-0.5625 0-0.22656 0.054688-0.41406 0.17188-0.5625 0.125-0.14453 0.27344-0.21875 0.45312-0.21875 0.10156 0 0.19141 0.023438 0.26562 0.0625 0.082031 0.042969 0.16016 0.10547 0.23438 0.1875zm-0.3125 0.96875c0.09375 0 0.16406-0.035156 0.21875-0.10938 0.0625-0.070313 0.09375-0.17969 0.09375-0.32812 0-0.13281-0.03125-0.23828-0.09375-0.3125-0.054688-0.082031-0.125-0.125-0.21875-0.125-0.10547 0-0.18359 0.042969-0.23438 0.125-0.054687 0.074219-0.078125 0.17969-0.078125 0.3125 0 0.14844 0.023438 0.25781 0.078125 0.32812 0.050781 0.074219 0.12891 0.10938 0.23438 0.10938z"/>
  </symbol>
  <symbol id="j" overflow="visible">
   <path d="m1.0312-0.3125c0.09375 0 0.16406-0.035156 0.21875-0.10938 0.0625-0.070313 0.09375-0.17969 0.09375-0.32812 0-0.13281-0.03125-0.23828-0.09375-0.3125-0.054688-0.082031-0.125-0.125-0.21875-0.125-0.10547 0-0.1875 0.042969-0.25 0.125-0.054688 0.074219-0.078125 0.17969-0.078125 0.3125 0 0.14844 0.023437 0.25781 0.078125 0.32812 0.0625 0.074219 0.14453 0.10938 0.25 0.10938zm-0.32812-0.96875c0.070313-0.082031 0.14453-0.14453 0.21875-0.1875 0.082031-0.039062 0.17578-0.0625 0.28125-0.0625 0.1875 0 0.33594 0.074219 0.45312 0.21875 0.11328 0.14844 0.17188 0.33594 0.17188 0.5625 0 0.23047-0.058594 0.41797-0.17188 0.5625-0.11719 0.14844-0.26562 0.21875-0.45312 0.21875-0.10547 0-0.19922-0.015625-0.28125-0.046875-0.074219-0.039062-0.14844-0.10938-0.21875-0.20312v0.21875h-0.46875v-2.0781h0.46875z"/>
  </symbol>
  <symbol id="i" overflow="visible">
   <path d="m0.03125-1.5h0.48438l0.39062 1.0156 0.34375-1.0156h0.48438l-0.625 1.6406c-0.0625 0.16406-0.14062 0.28125-0.23438 0.34375-0.085938 0.070313-0.19531 0.10938-0.32812 0.10938h-0.26562v-0.3125h0.14062c0.082031 0 0.14062-0.015625 0.17188-0.046875 0.039062-0.023437 0.070312-0.070313 0.09375-0.14062l0.015625-0.03125z"/>
  </symbol>
  <symbol id="c" overflow="visible">
   <path d="m1.3906-1.4531v0.375c-0.09375-0.050781-0.19531-0.085937-0.29688-0.10938-0.09375-0.019531-0.18359-0.03125-0.26562-0.03125-0.085937 0-0.15234 0.015625-0.20312 0.046875-0.042969 0.023437-0.0625 0.054687-0.0625 0.09375 0 0.042969 0.015625 0.074219 0.046875 0.09375 0.03125 0.023437 0.09375 0.039063 0.1875 0.046875l0.078125 0.015625c0.25 0.03125 0.41406 0.085937 0.5 0.15625 0.082031 0.0625 0.125 0.17188 0.125 0.32812s-0.0625 0.27734-0.1875 0.35938c-0.11719 0.074219-0.28906 0.10938-0.51562 0.10938-0.10547 0-0.21094-0.011719-0.3125-0.03125-0.10547-0.0078125-0.21094-0.03125-0.3125-0.0625v-0.35938c0.09375 0.054687 0.1875 0.089844 0.28125 0.10938 0.10156 0.023438 0.20703 0.03125 0.3125 0.03125 0.09375 0 0.16016-0.007812 0.20312-0.03125 0.050781-0.03125 0.078125-0.070312 0.078125-0.125 0-0.039062-0.015625-0.070312-0.046875-0.09375-0.03125-0.019531-0.10156-0.035156-0.20312-0.046875l-0.078125-0.015625c-0.21875-0.019531-0.37109-0.066406-0.45312-0.14062-0.085937-0.070313-0.125-0.17969-0.125-0.32812 0-0.15625 0.050781-0.26953 0.15625-0.34375 0.11328-0.082031 0.28125-0.125 0.5-0.125 0.09375 0 0.1875 0.011719 0.28125 0.03125 0.10156 0.011719 0.20703 0.027344 0.3125 0.046875z"/>
  </symbol>
  <symbol id="b" overflow="visible">
   <path d="m1.7344-0.90625v0.90625h-0.48438v-0.6875c0-0.13281-0.007812-0.22266-0.015625-0.26562 0-0.050781-0.007813-0.09375-0.015625-0.125-0.023438-0.03125-0.046875-0.050781-0.078125-0.0625-0.03125-0.019531-0.070313-0.03125-0.10938-0.03125-0.10547 0-0.1875 0.042969-0.25 0.125-0.054688 0.074219-0.078125 0.17969-0.078125 0.3125v0.73438h-0.46875v-2.0781h0.46875v0.79688c0.070313-0.082031 0.14844-0.14453 0.23438-0.1875 0.082031-0.039062 0.17188-0.0625 0.26562-0.0625 0.17578 0 0.30469 0.054688 0.39062 0.15625 0.09375 0.10547 0.14062 0.26172 0.14062 0.46875z"/>
  </symbol>
  <symbol id="h" overflow="visible">
   <path d="m1.7344-0.90625v0.90625h-0.48438v-0.70312c0-0.125-0.007812-0.20703-0.015625-0.25 0-0.050781-0.007813-0.09375-0.015625-0.125-0.023438-0.03125-0.046875-0.050781-0.078125-0.0625-0.03125-0.019531-0.070313-0.03125-0.10938-0.03125-0.10547 0-0.1875 0.042969-0.25 0.125-0.054688 0.074219-0.078125 0.17969-0.078125 0.3125v0.73438h-0.46875v-1.5h0.46875v0.21875c0.070313-0.082031 0.14844-0.14453 0.23438-0.1875 0.082031-0.039062 0.17188-0.0625 0.26562-0.0625 0.17578 0 0.30469 0.054688 0.39062 0.15625 0.09375 0.10547 0.14062 0.26172 0.14062 0.46875z"/>
  </symbol>
  <symbol id="u" overflow="visible">
   <path d="m0.23438-2.0781h0.46875v1.125l0.54688-0.54688h0.5625l-0.73438 0.6875 0.79688 0.8125h-0.57812l-0.59375-0.625v0.625h-0.46875z"/>
  </symbol>
  <symbol id="t" overflow="visible">
   <path d="m0.23438-1.5h0.46875v1.5h-0.46875zm0-0.57812h0.46875v0.39062h-0.46875z"/>
  </symbol>
  <symbol id="s" overflow="visible">
   <path d="m1.25-0.25c-0.074219 0.085938-0.15234 0.14844-0.23438 0.1875-0.074219 0.042969-0.16406 0.0625-0.26562 0.0625-0.17969 0-0.32812-0.070312-0.45312-0.21875-0.11719-0.14453-0.17188-0.32812-0.17188-0.54688s0.054688-0.39844 0.17188-0.54688c0.125-0.14453 0.27344-0.21875 0.45312-0.21875 0.10156 0 0.19141 0.023438 0.26562 0.0625 0.082031 0.042969 0.16016 0.10547 0.23438 0.1875v-0.21875h0.48438v1.3438c0 0.23828-0.078125 0.42188-0.23438 0.54688-0.15625 0.13281-0.375 0.20312-0.65625 0.20312-0.09375 0-0.1875-0.011719-0.28125-0.03125-0.085938-0.011719-0.16797-0.03125-0.25-0.0625v-0.375c0.082031 0.050781 0.16016 0.085938 0.23438 0.10938 0.082031 0.03125 0.16406 0.046875 0.25 0.046875 0.15625 0 0.26953-0.039062 0.34375-0.10938 0.070313-0.074219 0.10938-0.17969 0.10938-0.32812zm-0.3125-0.9375c-0.10547 0-0.18359 0.039062-0.23438 0.10938-0.054687 0.074219-0.078125 0.17969-0.078125 0.3125 0 0.13672 0.023438 0.24219 0.078125 0.3125 0.050781 0.074219 0.12891 0.10938 0.23438 0.10938 0.09375 0 0.16406-0.035156 0.21875-0.10938 0.0625-0.070313 0.09375-0.17578 0.09375-0.3125 0-0.13281-0.03125-0.23828-0.09375-0.3125-0.054688-0.070313-0.125-0.10938-0.21875-0.10938z"/>
  </symbol>
  <symbol id="r" overflow="visible">
   <path d="m1.2188-2.0781v0.3125h-0.26562c-0.074219 0-0.125 0.015625-0.15625 0.046875-0.023437 0.023438-0.03125 0.0625-0.03125 0.125v0.09375h0.40625v0.34375h-0.40625v1.1562h-0.46875v-1.1562h-0.25v-0.34375h0.25v-0.09375c0-0.16406 0.039063-0.28516 0.125-0.35938 0.09375-0.082031 0.23438-0.125 0.42188-0.125z"/>
  </symbol>
  <symbol id="g" overflow="visible">
   <path d="m0.9375-1.1875c-0.10547 0-0.1875 0.039062-0.25 0.10938-0.054688 0.074219-0.078125 0.18359-0.078125 0.32812 0 0.14844 0.023437 0.26172 0.078125 0.34375 0.0625 0.074219 0.14453 0.10938 0.25 0.10938 0.10156 0 0.17969-0.035156 0.23438-0.10938 0.0625-0.082031 0.09375-0.19531 0.09375-0.34375 0-0.14453-0.03125-0.25391-0.09375-0.32812-0.054687-0.070313-0.13281-0.10938-0.23438-0.10938zm0-0.34375c0.25781 0 0.46094 0.074219 0.60938 0.21875 0.14453 0.13672 0.21875 0.32422 0.21875 0.5625 0 0.25-0.074219 0.44531-0.21875 0.57812-0.14844 0.13672-0.35156 0.20312-0.60938 0.20312-0.26172 0-0.46484-0.066406-0.60938-0.20312-0.13672-0.13281-0.20312-0.32812-0.20312-0.57812 0-0.23828 0.066406-0.42578 0.20312-0.5625 0.14453-0.14453 0.34766-0.21875 0.60938-0.21875z"/>
  </symbol>
  <symbol id="q" overflow="visible">
   <path d="m1.6094-1.25c0.0625-0.09375 0.13281-0.16016 0.21875-0.20312 0.082031-0.050781 0.17578-0.078125 0.28125-0.078125 0.16406 0 0.29688 0.054688 0.39062 0.15625 0.09375 0.10547 0.14062 0.26172 0.14062 0.46875v0.90625h-0.48438v-0.78125-0.03125-0.0625c0-0.10156-0.015625-0.17578-0.046875-0.21875-0.03125-0.050781-0.085937-0.078125-0.15625-0.078125-0.085937 0-0.15234 0.039063-0.20312 0.10938-0.054688 0.074219-0.078125 0.18359-0.078125 0.32812v0.73438h-0.48438v-0.78125c0-0.16406-0.015625-0.26953-0.046875-0.3125-0.023437-0.050781-0.070313-0.078125-0.14062-0.078125-0.09375 0-0.16797 0.042969-0.21875 0.125-0.054688 0.074219-0.078125 0.17969-0.078125 0.3125v0.73438h-0.46875v-1.5h0.46875v0.21875c0.0625-0.082031 0.12891-0.14453 0.20312-0.1875 0.082031-0.039062 0.16406-0.0625 0.25-0.0625 0.10156 0 0.19141 0.027344 0.26562 0.078125 0.082031 0.054687 0.14453 0.12109 0.1875 0.20312z"/>
  </symbol>
  <symbol id="p" overflow="visible">
   <path d="m0.25-2h0.57812l0.71875 1.375v-1.375h0.48438v2h-0.5625l-0.73438-1.375v1.375h-0.48438z"/>
  </symbol>
  <symbol id="o" overflow="visible">
   <path d="m0.21875-0.57812v-0.92188h0.46875v0.15625 0.3125 0.23438 0.26562c0.007812 0.054688 0.023438 0.089844 0.046875 0.10938 0.019531 0.03125 0.046875 0.058594 0.078125 0.078125 0.03125 0.011719 0.066406 0.015625 0.10938 0.015625 0.09375 0 0.16406-0.035156 0.21875-0.10938 0.0625-0.070312 0.09375-0.17578 0.09375-0.3125v-0.75h0.48438v1.5h-0.48438v-0.21875c-0.074219 0.09375-0.15234 0.16406-0.23438 0.20312-0.074219 0.03125-0.15625 0.046875-0.25 0.046875-0.17969 0-0.3125-0.050781-0.40625-0.15625-0.085938-0.10156-0.125-0.25391-0.125-0.45312z"/>
  </symbol>
  <symbol id="n" overflow="visible">
   <path d="m0.25-2h0.85938c0.25 0 0.44141 0.058594 0.57812 0.17188 0.13281 0.11719 0.20312 0.27734 0.20312 0.48438 0 0.21094-0.070313 0.37109-0.20312 0.48438-0.13672 0.11719-0.32812 0.17188-0.57812 0.17188h-0.34375v0.6875h-0.51562zm0.51562 0.375v0.5625h0.28125c0.10156 0 0.17969-0.019531 0.23438-0.0625 0.050781-0.050781 0.078125-0.125 0.078125-0.21875s-0.027344-0.16016-0.078125-0.20312c-0.054688-0.050781-0.13281-0.078125-0.23438-0.078125z"/>
  </symbol>
  <symbol id="m" overflow="visible">
   <path d="m0.23438-1.5h0.46875v1.4688c0 0.20703-0.046875 0.36328-0.14062 0.46875-0.09375 0.10156-0.23438 0.15625-0.42188 0.15625h-0.23438v-0.3125h0.078125c0.09375 0 0.15625-0.023438 0.1875-0.0625 0.039063-0.042969 0.0625-0.125 0.0625-0.25zm0-0.57812h0.46875v0.39062h-0.46875z"/>
  </symbol>
  <symbol id="l" overflow="visible">
   <path d="m1.4375-1.4531v0.39062c-0.0625-0.039062-0.13281-0.070312-0.20312-0.09375-0.0625-0.019531-0.13281-0.03125-0.20312-0.03125-0.125 0-0.23047 0.042969-0.3125 0.125-0.074219 0.074219-0.10938 0.17969-0.10938 0.3125 0 0.14844 0.035156 0.26172 0.10938 0.34375 0.082031 0.074219 0.1875 0.10938 0.3125 0.10938 0.082031 0 0.15625-0.007813 0.21875-0.03125 0.070312-0.03125 0.13281-0.066406 0.1875-0.10938v0.39062c-0.074219 0.03125-0.15234 0.050781-0.23438 0.0625-0.074219 0.0078125-0.14844 0.015625-0.21875 0.015625-0.27344 0-0.48438-0.066406-0.64062-0.20312-0.14844-0.13281-0.21875-0.32812-0.21875-0.57812 0-0.23828 0.070312-0.42578 0.21875-0.5625 0.15625-0.14453 0.36719-0.21875 0.64062-0.21875 0.070313 0 0.14453 0.011719 0.21875 0.03125 0.082031 0.011719 0.16016 0.027344 0.23438 0.046875z"/>
  </symbol>
 </defs>
 <g>
  <path d="m566.34 188.23v25.375 60.758 73.117 62.398c0 9.5156 0.054688 19.086 0 28.602 0 1.8047-0.10938 3.6094-0.32812 5.4141 0.21875-1.4766 0.38281-2.8984 0.60156-4.375-0.49219 3.3906-1.3672 6.6719-2.6797 9.8438l1.6406-3.9375c-0.92969 2.1875-2.0781 4.3203-3.3906 6.3438-0.054688 0.10937-1.0938 1.8047-1.2031 1.75-0.054687 0 2.7344-3.3359 1.2578-1.6406-0.875 0.98438-1.6953 1.9688-2.625 2.8984-0.82031 0.82031-1.75 1.6406-2.625 2.4062-1.0391 0.875-2.625 1.4219 1.3672-1.0391-0.49219 0.32812-0.98438 0.71094-1.4766 1.0391-2.0781 1.4219-4.3203 2.5703-6.6172 3.5547 1.3125-0.54688 2.625-1.0938 3.9375-1.6406-3.1719 1.3125-6.4531 2.1875-9.8438 2.6797 1.4766-0.21875 2.8984-0.38281 4.375-0.60156-4.8125 0.60156-9.7344 0.32812-14.547 0.32812h-27.781-41.781-51.352-56.109-56.875-52.938-44.516-31.609-14.164c-1.8594 0-3.7188-0.10937-5.6328-0.32812 1.4766 0.21875 2.8984 0.38281 4.375 0.60156-3.3906-0.49219-6.6719-1.3672-9.8438-2.6797 1.3125 0.54688 2.625 1.0938 3.9375 1.6406-2.1875-0.92969-4.3203-2.0781-6.3438-3.3906-0.10938-0.054687-1.8047-1.0938-1.75-1.2031 0-0.054688 3.3359 2.7344 1.6406 1.2578-0.98437-0.875-1.9688-1.6953-2.8984-2.625-0.82031-0.82031-1.6406-1.75-2.4062-2.625-0.875-1.0391-1.4219-2.625 1.0391 1.3672-0.32813-0.49219-0.71094-0.98438-1.0391-1.4766-1.4219-2.0781-2.5703-4.3203-3.5547-6.6172 0.54687 1.3125 1.0938 2.625 1.6406 3.9375-1.3125-3.1719-2.1875-6.4531-2.6797-9.8438 0.21875 1.4766 0.38281 2.8984 0.60156 4.375-0.4375-3.6094-0.32813-7.2734-0.32813-10.938v-17.828-60.539-73.609-63.219c0-9.7891-0.054687-19.578 0-29.312 0-1.8047 0.10938-3.6094 0.32813-5.4141-0.21875 1.4766-0.38281 2.8984-0.60156 4.375 0.49219-3.3906 1.3672-6.6719 2.6797-9.8438-0.54687 1.3125-1.0938 2.625-1.6406 3.9375 0.92969-2.1875 2.0781-4.3203 3.3906-6.3438 0.054688-0.10937 1.0938-1.8047 1.2031-1.75 0.054687 0-2.7344 3.3359-1.2578 1.6406 0.875-0.98438 1.6953-1.9688 2.625-2.8984 0.82031-0.82031 1.75-1.6406 2.625-2.4062 1.0391-0.875 2.625-1.4219-1.3672 1.0391 0.49219-0.32812 0.98437-0.71094 1.4766-1.0391 2.0781-1.4219 4.3203-2.5703 6.6172-3.5547-1.3125 0.54688-2.625 1.0938-3.9375 1.6406 3.1719-1.3125 6.4531-2.1875 9.8438-2.6797-1.4766 0.21875-2.8984 0.38281-4.375 0.60156 3.8281-0.49219 7.7109-0.32812 11.594-0.32812h18.703 44.953 10.5c7.7109 0 13.289-5.1953 15.805-12.031 4.8672-13.344 9.7344-26.742 14.602-40.086 0.875-2.3516 1.6953-4.7578 2.6797-7.0547l-1.6406 3.9375c0.875-1.9688 1.8047-3.8828 2.8984-5.6875 0.4375-0.71094 0.82031-1.3672 1.3125-2.0234 2.3516-3.4453-2.0234 2.1875-0.16406 0.16406 1.2578-1.3125 2.625-2.5156 3.8828-3.8281-2.3516 1.75-2.8438 2.1328-1.4766 1.2031 0.4375-0.27344 0.82031-0.54688 1.2578-0.82031 0.875-0.49219 1.75-0.92969 2.6797-1.3125l-3.9375 1.6406c1.6953-0.65625 3.3359-1.0938 5.1406-1.3672-1.4766 0.21875-2.8984 0.38281-4.375 0.60156 5.3594-0.54688 10.938-0.16406 16.297-0.16406h35.164 78.75c6.6719 0 13.672-0.54687 20.289 0.27344-1.4766-0.21875-2.8984-0.38281-4.375-0.60156 1.8594 0.27344 3.6094 0.71094 5.3594 1.4219-1.3125-0.54687-2.625-1.0938-3.9375-1.6406 1.3125 0.60156 2.4609 1.4219 3.7188 2.0781-4.1562-2.1328-2.625-2.1328-1.2031-0.76562 0.49219 0.49219 0.92969 0.98437 1.4219 1.4766 2.1328 2.2969-2.2969-3.3906-0.875-1.0938 0.49219 0.76562 0.98438 1.4766 1.4219 2.2969 1.0391 1.75 1.8594 3.5547 2.6797 5.4141-0.54688-1.3125-1.0938-2.625-1.6406-3.9375 2.5156 6.0156 4.5938 12.25 6.8359 18.375 3.0625 8.4766 6.1797 16.898 9.2422 25.375 0.76562 2.0234 1.4766 4.0469 2.2422 6.0703 2.5156 6.8906 8.2031 12.031 15.805 12.031h72.461c4.375 0 8.8594-0.21875 13.234 0.32812-1.4766-0.21875-2.8984-0.38281-4.375-0.60156 3.3906 0.49219 6.6719 1.3672 9.8438 2.6797l-3.9375-1.6406c2.1875 0.92969 4.3203 2.0781 6.3438 3.3906 0.10938 0.054688 1.8047 1.0938 1.75 1.2031 0 0.054687-3.3359-2.7344-1.6406-1.2578 0.98438 0.875 1.9688 1.6953 2.8984 2.625 0.82031 0.82031 1.6406 1.75 2.4062 2.625 0.875 1.0391 1.4219 2.625-1.0391-1.3672 0.32812 0.49219 0.71094 0.98438 1.0391 1.4766 1.4219 2.0781 2.5703 4.3203 3.5547 6.6172l-1.6406-3.9375c1.3125 3.1719 2.1875 6.4531 2.6797 9.8438-0.21875-1.4766-0.38281-2.8984-0.60156-4.375 0.16406 1.75 0.27344 3.4453 0.32812 5.25 0.10938 8.5859 7.4922 16.789 16.406 16.406 8.8047-0.38281 16.516-7.2188 16.406-16.406-0.16406-19.688-10.773-38.336-27.891-48.289-9.9531-5.7969-20.891-7.4922-32.211-7.4922h-57.75-18.375c5.25 3.9922 10.555 8.0391 15.805 12.031-3.2812-9.0234-6.5625-18.047-9.8438-27.07-1.8594-5.1406-3.7188-10.281-5.6328-15.367-2.3516-6.3984-4.5391-13.07-8.4219-18.758-3.3906-5.0312-7.3828-9.4062-12.633-12.578-5.3594-3.2266-11.102-4.4297-17.227-4.9766-1.9688-0.16406-3.8828-0.10938-5.8516-0.10938h-23.625-77.547-30.406-7.9844c-6.3438 0-12.25 1.3125-17.992 4.0469-15.641 7.4375-21.766 23.789-27.289 38.938-4.1016 11.156-8.1484 22.367-12.25 33.523-0.27344 0.82031-0.60156 1.5859-0.875 2.4062 5.25-3.9922 10.555-8.0391 15.805-12.031h-57.422c-7.6016 0-15.203-0.054687-22.805 0-20.453 0.10938-40.742 11.758-49.766 30.406-4.4297 9.0781-6.1797 18.594-6.1797 28.602v16.078 61.141 76.945 65.68c0 9.5703-0.32812 19.25 0.054688 28.82 0.92969 23.844 16.68 44.406 39.32 51.789 6.2344 2.0234 12.797 2.5156 19.305 2.5156h32.156 58.625 73.773 77.547 69.945 51.023c6.8906 0 13.781 0.054687 20.727 0 20.508-0.16406 40.906-11.922 49.82-30.734 4.2656-9.0234 6.0156-18.375 6.0156-28.273v-43.203-72.461-74.648-49.766-7.0547c0-8.5859-7.5469-16.789-16.406-16.406-8.8594 0.27344-16.352 7.1094-16.352 16.297z"/>
  <path d="m444.88 302.48c0 5.0859-0.38281 10.117-1.0391 15.148 0.21875-1.4766 0.38281-2.8984 0.60156-4.375-1.3672 9.7344-3.9922 19.25-7.7656 28.328 0.54687-1.3125 1.0938-2.625 1.6406-3.9375-2.7344 6.3984-6.0703 12.578-9.9531 18.375-1.0391 1.5859-2.1875 3.1719-3.3359 4.7031-0.71094 0.98438-2.625 3.0625 0.82031-1.0391-0.60156 0.71094-1.2031 1.4766-1.8047 2.2422-2.1875 2.6797-4.5391 5.1953-7 7.6562s-4.9766 4.7578-7.6562 7c-0.4375 0.38281-1.6406 1.75-2.2422 1.8047 0.71094-0.054687 3.6094-2.7344 1.0391-0.82031-1.4219 1.0938-2.8984 2.1328-4.375 3.1172-5.9062 3.9922-12.141 7.3281-18.648 10.117l3.9375-1.6406c-9.0781 3.8281-18.594 6.4531-28.328 7.7656 1.4766-0.21875 2.8984-0.38281 4.375-0.60156-10.062 1.3125-20.234 1.3125-30.352 0 1.4766 0.21875 2.8984 0.38281 4.375 0.60156-9.7344-1.3672-19.25-3.9922-28.328-7.7656l3.9375 1.6406c-6.3984-2.7344-12.578-6.0703-18.375-9.9531-1.5859-1.0391-3.1719-2.1875-4.7031-3.3359-0.98438-0.71094-3.0625-2.625 1.0391 0.82031-0.71094-0.60156-1.4766-1.2031-2.2422-1.8047-2.6797-2.1875-5.1953-4.5391-7.6562-7-2.4609-2.4609-4.7578-4.9766-7-7.6562-0.38281-0.4375-1.75-1.6406-1.8047-2.2422 0.054688 0.71094 2.7344 3.6094 0.82031 1.0391-1.0938-1.4219-2.1328-2.8984-3.1172-4.375-3.9922-5.9062-7.3281-12.141-10.117-18.648l1.6406 3.9375c-3.8281-9.0781-6.4531-18.594-7.7656-28.328 0.21875 1.4766 0.38281 2.8984 0.60156 4.375-1.3125-10.062-1.3125-20.234 0-30.352-0.21875 1.4766-0.38281 2.8984-0.60156 4.375 1.3672-9.7344 3.9922-19.25 7.7656-28.328l-1.6406 3.9375c2.7344-6.3984 6.0703-12.578 9.9531-18.375 1.0391-1.5859 2.1875-3.1719 3.3359-4.7031 0.71094-0.98438 2.625-3.0625-0.82031 1.0391 0.60156-0.71094 1.2031-1.4766 1.8047-2.2422 2.1875-2.6797 4.5391-5.1953 7-7.6562 2.4609-2.4609 4.9766-4.7578 7.6562-7 0.4375-0.38281 1.6406-1.75 2.2422-1.8047-0.71094 0.054687-3.6094 2.7344-1.0391 0.82031 1.4219-1.0938 2.8984-2.1328 4.375-3.1172 5.9062-3.9922 12.141-7.3281 18.648-10.117-1.3125 0.54688-2.625 1.0938-3.9375 1.6406 9.0781-3.8281 18.594-6.4531 28.328-7.7656-1.4766 0.21875-2.8984 0.38281-4.375 0.60156 10.062-1.3125 20.234-1.3125 30.352 0-1.4766-0.21875-2.8984-0.38281-4.375-0.60156 9.7344 1.3672 19.25 3.9922 28.328 7.7656-1.3125-0.54688-2.625-1.0938-3.9375-1.6406 6.3984 2.7344 12.578 6.0703 18.375 9.9531 1.5859 1.0391 3.1719 2.1875 4.7031 3.3359 0.98437 0.71094 3.0625 2.625-1.0391-0.82031 0.71094 0.60156 1.4766 1.2031 2.2422 1.8047 2.6797 2.1875 5.1953 4.5391 7.6562 7 2.4609 2.4609 4.7578 4.9766 7 7.6562 0.38281 0.4375 1.75 1.6406 1.8047 2.2422-0.054688-0.71094-2.7344-3.6094-0.82031-1.0391 1.0938 1.4219 2.1328 2.8984 3.1172 4.375 3.9922 5.9062 7.3281 12.141 10.117 18.648-0.54687-1.3125-1.0938-2.625-1.6406-3.9375 3.8281 9.0781 6.4531 18.594 7.7656 28.328-0.21875-1.4766-0.38281-2.8984-0.60156-4.375 0.65625 5.0859 1.0391 10.117 1.0391 15.203 0.054688 8.5859 7.5469 16.789 16.406 16.406 8.8594-0.38281 16.461-7.2188 16.406-16.406-0.10937-25.867-7.9297-52.008-23.023-73.062-15.695-21.82-36.914-38.117-62.234-47.359-48.891-17.828-107.19-1.9141-140.16 38.336-17.281 21.055-27.508 46.102-29.641 73.281-2.0234 25.812 4.5391 52.555 17.938 74.648 13.016 21.492 32.648 39.594 55.617 49.875 13.18 5.9062 26.469 9.5156 40.852 11.211 13.016 1.5312 26.25 0.54688 39.102-1.9688 50.367-10.008 92.094-53.047 99.695-103.96 1.0391-7 1.8047-13.945 1.8047-21 0.054687-8.5859-7.5469-16.789-16.406-16.406-8.8594 0.38281-16.352 7.2188-16.352 16.406z"/>
 </g>
</svg>
