<svg width="24" height="24" version="1.1" viewBox="0 0 700 700" xmlns="http://www.w3.org/2000/svg">
 <path d="m210 560c-6.1875 0-12.125-2.457-16.5-6.8359-4.375-4.375-6.832-10.309-6.832-16.496v-513.34c0-6.1875 2.457-12.121 6.832-16.496 4.375-4.3789 10.312-6.8359 16.5-6.8359 6.1211 0.027344 11.988 2.457 16.332 6.7656l350 353.73c4.2891 4.3711 6.6836 10.254 6.6719 16.379-0.011718 6.125-2.4297 12-6.7344 16.355-4.3008 4.3555-10.145 6.8477-16.27 6.9336h-186.67l-146.77 152.6c-4.3242 4.5391-10.297 7.1484-16.566 7.2344zm11.668-507.96v455.23l130.43-136.73v0.003906c3.2969-3.4297 7.8438-5.3672 12.598-5.3672h167.07z"/>
</svg>