<?xml version="1.0" encoding="UTF-8"?>
<svg width="25px" height="25px" version="1.1" viewBox="0 0 700 700" xmlns="http://www.w3.org/2000/svg">
 <g>
  <path d="m440.12 345.45c34.996-41.363 52.652-94.656 49.273-148.73-3.375-54.078-27.527-104.76-67.398-141.45-39.875-36.688-92.387-56.543-146.56-55.414-54.172 1.125-105.81 23.148-144.12 61.461s-60.336 89.953-61.461 144.12c-1.1289 54.172 18.727 106.68 55.414 146.56 36.688 39.871 87.367 64.023 141.45 67.398 54.078 3.3789 107.37-14.277 148.73-49.273l184.62 184.8 24.676-24.676zm-160.12 39.551c-46.414 0-90.926-18.438-123.74-51.258-32.82-32.816-51.258-77.328-51.258-123.74s18.438-90.926 51.258-123.74c32.816-32.82 77.328-51.258 123.74-51.258s90.926 18.438 123.74 51.258c32.82 32.816 51.258 77.328 51.258 123.74 0 30.719-8.0859 60.898-23.445 87.5-15.359 26.602-37.453 48.695-64.055 64.055-26.602 15.359-56.781 23.445-87.5 23.445z"/>
  <path d="m297.5 105h-35v87.5h-87.5v35h87.5v87.5h35v-87.5h87.5v-35h-87.5z"/>
 </g>
</svg>
