<?xml version="1.0" encoding="UTF-8"?>
<svg width="24" height="24" version="1.1" viewBox="0 0 700 700" xmlns="http://www.w3.org/2000/svg">
 <g>
  <path d="m217 49c0-27.062 21.938-49 49-49h170.59c22.203 0 43.328 9.5859 57.945 26.297l67.414 77.039c12.281 14.035 19.051 32.055 19.051 50.707v258.96c0 27.062-21.938 49-49 49-11.598 0-21-9.4023-21-21s9.4023-21 21-21c3.8672 0 7-3.1328 7-7v-259h-49c-42.527 0-77-34.473-77-77v-35h-147c-3.8672 0-7 3.1328-7 7 0 11.598-9.4023 21-21 21s-21-9.4023-21-21zm238-1.7656v29.766c0 19.332 15.668 35 35 35h23.723l-50.793-58.047c-2.3203-2.6523-5-4.9062-7.9297-6.7188z" fill-rule="evenodd"/>
  <path d="m182 252c-11.598 0-21 9.4023-21 21s9.4023 21 21 21h112c11.598 0 21-9.4023 21-21s-9.4023-21-21-21z"/>
  <path d="m161 357c0-11.598 9.4023-21 21-21h196c11.598 0 21 9.4023 21 21s-9.4023 21-21 21h-196c-11.598 0-21-9.4023-21-21z"/>
  <path d="m182 420c-11.598 0-21 9.4023-21 21s9.4023 21 21 21h196c11.598 0 21-9.4023 21-21s-9.4023-21-21-21z"/>
  <path d="m98 133v364c0 30.93 25.07 56 56 56h280c30.93 0 56-25.07 56-56v-259.7c0-15.621-6.5234-30.531-18-41.133l-112.91-104.3c-10.348-9.5586-23.918-14.867-38-14.867h-167.09c-30.93 0-56 25.07-56 56zm56-14h147v42c0 42.527 34.473 77 77 77h70v259c0 7.7305-6.2695 14-14 14h-280c-7.7305 0-14-6.2695-14-14v-364c0-7.7305 6.2695-14 14-14zm189 15.18 66.922 61.82h-31.922c-19.332 0-35-15.668-35-35z" fill-rule="evenodd"/>
 </g>
</svg>
