<?xml version="1.0" encoding="UTF-8"?>
<svg width="24" height="24" version="1.1" viewBox="0 0 700 700" xmlns="http://www.w3.org/2000/svg">
 <g>
  <path d="m342.32 478.33h-54.648c-15.586 0-30.238-6.0664-41.254-17.078l-70-70c-22.75-22.75-22.75-59.758 0-82.484l270.32-270.36c4.5508-4.5508 11.945-4.5508 16.496 0l163.33 163.33c4.5508 4.5508 4.5508 11.945 0 16.496l-242.99 243.02c-11.016 11.012-25.668 17.078-41.254 17.078zm112.68-415.17-262.08 262.08c-6.6289 6.6289-10.246 15.402-10.246 24.758s3.6406 18.129 10.242 24.758l70 70c6.625 6.6016 15.398 10.242 24.758 10.242h54.672c9.3555 0 18.152-3.6406 24.758-10.242l234.73-234.76z"/>
  <path d="m431.67 408.33c-2.9883 0-5.9727-1.1445-8.2617-3.4062l-163.33-163.33c-4.5508-4.5508-4.5508-11.945 0-16.496 4.5508-4.5508 11.945-4.5508 16.496 0l163.33 163.33c4.5508 4.5508 4.5508 11.945 0 16.496-2.2617 2.2656-5.25 3.4062-8.2344 3.4062z"/>
  <path d="m501.67 525h-420c-6.4414 0-11.668-5.2266-11.668-11.668 0-6.4414 5.2266-11.668 11.668-11.668h420c6.4414 0 11.668 5.2266 11.668 11.668-0.003907 6.4414-5.2305 11.668-11.668 11.668z"/>
 </g>
</svg>
