<?xml version="1.0" encoding="UTF-8"?>
<svg width="24" height="24" version="1.1" viewBox="0 0 700 700" xmlns="http://www.w3.org/2000/svg">
 <g>
  <path d="m196.98 253.94c70 0 126.96-56.961 126.96-126.96 0-70.02-56.961-126.98-126.96-126.98-70.02 0-126.98 56.961-126.98 126.98 0 70 56.961 126.96 126.98 126.96zm0-218.94c50.699 0 91.961 41.246 91.961 91.98 0 50.699-41.246 91.961-91.961 91.961-50.734 0-91.98-41.266-91.98-91.961 0-50.734 41.246-91.98 91.98-91.98z"/>
  <path d="m503.02 253.94c70.016 0 126.98-56.961 126.98-126.96 0-70.02-56.961-126.98-126.98-126.98-70 0-126.96 56.961-126.96 126.98 0 70 56.961 126.96 126.96 126.96zm0-218.94c50.734 0 91.98 41.246 91.98 91.98 0 50.699-41.246 91.961-91.98 91.961-50.699 0-91.961-41.246-91.961-91.961 0-50.734 41.266-91.98 91.961-91.98z"/>
  <path d="m196.98 560c70 0 126.96-56.961 126.96-126.98 0-70-56.961-126.96-126.96-126.96-70.02 0-126.98 56.961-126.98 126.96 0 70.02 56.961 126.98 126.98 126.98zm0-218.94c50.699 0 91.961 41.246 91.961 91.961 0 50.715-41.246 91.98-91.961 91.98-50.734 0-91.98-41.246-91.98-91.98 0-50.695 41.246-91.961 91.98-91.961z"/>
  <path d="m503.02 560c70.02 0 126.98-56.961 126.98-126.98 0-70-56.961-126.96-126.98-126.96-70 0-126.96 56.961-126.96 126.96 0 70.02 56.961 126.98 126.96 126.98zm0-218.94c50.715 0 91.98 41.246 91.98 91.961 0 50.734-41.246 91.98-91.98 91.98-50.699 0-91.961-41.246-91.961-91.98 0-50.695 41.266-91.961 91.961-91.961z"/>
 </g>
</svg>
